{
    "accessors" : [
        {
            "bufferView" : 0,
            "componentType" : 5125,
            "count" : 142086,
            "max" : [
                93276
            ],
            "min" : [
                0
            ],
            "type" : "SCALAR"
        },
        {
            "bufferView" : 1,
            "componentType" : 5126,
            "count" : 93277,
            "max" : [
                105.97019958496094,
                117.2041015625,
                0.179299995303154
            ],
            "min" : [
                -129.7104034423828,
                -116.4375,
                -39.050899505615234
            ],
            "type" : "VEC3"
        },
        {
            "bufferView" : 2,
            "componentType" : 5126,
            "count" : 93277,
            "max" : [
                1.0,
                1.0,
                1.0
            ],
            "min" : [
                -1.0,
                -1.0,
                -1.0
            ],
            "type" : "VEC3"
        }
    ],
    "asset" : {
        "generator" : "Khronos Blender glTF 2.0 exporter",
        "version" : "2.0"
    },
    "bufferViews" : [
        {
            "buffer" : 0,
            "byteLength" : 568344,
            "byteOffset" : 0,
            "target" : 34963
        },
        {
            "buffer" : 0,
            "byteLength" : 1119324,
            "byteOffset" : 568344,
            "target" : 34962
        },
        {
            "buffer" : 0,
            "byteLength" : 1119324,
            "byteOffset" : 1687668,
            "target" : 34962
        }
    ],
    "buffers" : [
        {
            "byteLength" : 2806992,
            "uri" : "test_02_60.bin"
        }
    ],
    "meshes" : [
        {
            "name" : "pravda_MB_60",
            "primitives" : [
                {
                    "attributes" : {
                        "NORMAL" : 2,
                        "POSITION" : 1
                    },
                    "indices" : 0
                }
            ]
        }
    ],
    "nodes" : [
        {
            "mesh" : 0,
            "name" : "pravda_MB_60",
            "rotation" : [
                0.7071068286895752,
                0.0,
                -0.0,
                0.7071067094802856
            ]
        }
    ],
    "scene" : 0,
    "scenes" : [
        {
            "name" : "Scene",
            "nodes" : [
                0
            ]
        }
    ]
}
