{
    "accessors" : [
        {
            "bufferView" : 0,
            "componentType" : 5123,
            "count" : 64632,
            "max" : [
                43638
            ],
            "min" : [
                0
            ],
            "type" : "SCALAR"
        },
        {
            "bufferView" : 1,
            "componentType" : 5126,
            "count" : 43639,
            "max" : [
                105.97019958496094,
                -23.160600662231445,
                -0.24060000479221344
            ],
            "min" : [
                -16.939199447631836,
                -116.4375,
                -39.050899505615234
            ],
            "type" : "VEC3"
        },
        {
            "bufferView" : 2,
            "componentType" : 5126,
            "count" : 43639,
            "max" : [
                1.0,
                1.0,
                1.0
            ],
            "min" : [
                -1.0,
                -1.0,
                -1.0
            ],
            "type" : "VEC3"
        }
    ],
    "asset" : {
        "generator" : "Khronos Blender glTF 2.0 exporter",
        "version" : "2.0"
    },
    "bufferViews" : [
        {
            "buffer" : 0,
            "byteLength" : 129264,
            "byteOffset" : 0,
            "target" : 34963
        },
        {
            "buffer" : 0,
            "byteLength" : 523668,
            "byteOffset" : 129264,
            "target" : 34962
        },
        {
            "buffer" : 0,
            "byteLength" : 523668,
            "byteOffset" : 652932,
            "target" : 34962
        }
    ],
    "buffers" : [
        {
            "byteLength" : 1176600,
            "uri" : "Zavod.bin"
        }
    ],
    "meshes" : [
        {
            "name" : "zavod_MB_60",
            "primitives" : [
                {
                    "attributes" : {
                        "NORMAL" : 2,
                        "POSITION" : 1
                    },
                    "indices" : 0
                }
            ]
        }
    ],
    "nodes" : [
        {
            "mesh" : 0,
            "name" : "zavod_MB_60",
            "rotation" : [
                0.7071068286895752,
                0.0,
                -0.0,
                0.7071067094802856
            ]
        }
    ],
    "scene" : 0,
    "scenes" : [
        {
            "name" : "Scene",
            "nodes" : [
                0
            ]
        }
    ]
}
