<svg width="83" height="50" viewBox="0 0 83 50" fill="none" xmlns="http://www.w3.org/2000/svg"><circle cx="58" cy="25" r="25" fill="#414141"/><circle cx="25" cy="25" r="25" fill="#A7684B"/><path d="M31.2918 14.0925L31.0328 14.0921L25.5282 24.8785L19.8255 14L12.0178 33.6524H10V35.2308H21.0541V33.6524H18.8608L21.0541 27.5104L25.5282 35.2308L29.8271 27.5104L32.02 33.6524H29.8271V35.2308H40.793V33.6524H38.8933L31.2918 14.0925Z" fill="#fff"/><path d="M59.46 32.03C57.69 32.03 56.31 31.4 54.78 30.05L52.95 32.87C54.84 34.43 56.4 35.45 59.31 35.45C64.02 35.45 66.99 32.6 66.99 29.09C66.99 26.72 65.58 24.56 62.61 23.9C65.16 22.88 66.42 20.87 66.42 18.77C66.42 15.92 64.41 13.55 60.09 13.55C57.39 13.55 55.2 14.69 53.37 16.43L55.11 19.07C56.61 17.72 58.11 16.91 60 16.91C61.68 16.91 62.7 17.9 62.7 19.37C62.7 22.07 58.26 23.09 56.85 23.42L57.54 26.06C58.5 25.79 59.49 25.64 60.06 25.64C61.65 25.64 62.46 27.29 62.46 28.85C62.46 30.2 61.5 32.03 59.46 32.03Z" fill="#fff"/></svg>