<svg width="83" height="50" viewBox="0 0 83 50" fill="none" xmlns="http://www.w3.org/2000/svg"><circle cx="58" cy="25" r="25" fill="#414141"/><circle cx="25" cy="25" r="25" fill="#979AB0"/><path d="M31.2918 14.0925L31.0328 14.0921L25.5282 24.8785L19.8255 14L12.0178 33.6524H10V35.2308H21.0541V33.6524H18.8608L21.0541 27.5104L25.5282 35.2308L29.8271 27.5104L32.02 33.6524H29.8271V35.2308H40.793V33.6524H38.8933L31.2918 14.0925Z" fill="#fff"/><path d="M54.9 19.43C56.43 17.75 57.9 16.97 59.67 16.97C61.71 16.97 62.67 18.62 62.67 19.97C62.67 23.03 60.42 24.56 53.01 32V35H67.05V31.31H58.71C63.78 26.21 66.66 23.39 66.66 19.7C66.66 16.25 64.44 13.55 60.12 13.55C57.21 13.55 54.69 14.93 52.95 16.82L54.9 19.43Z" fill="#fff"/></svg>